<?xml version="1.0" encoding="UTF-8"?>
<svg xmlns="http://www.w3.org/2000/svg" xmlns:xlink="http://www.w3.org/1999/xlink" version="1.1" id="Layer_1" x="0px" y="0px" viewBox="0 0 608.7 130" style="enable-background:new 0 0 608.7 130;" xml:space="preserve">
<style type="text/css">
	.st0{fill:#FD6B18;}
</style>
<g id="Layer_2_1_">
	<g id="Layer_1-2">
		<path class="st0" d="M251.3,0.8c113.4,4.8,225.5,25.7,333,62.1v-2.7c0-19,0-38,0-57.1c0-2.4,0-2.4-2.4-2.4h-122    C390.4,0.8,320.8,0.8,251.3,0.8z"></path>
		<path class="st0" d="M85.9,74.7c-0.2-0.4-0.3-0.5-0.3-0.7c0-1.2-0.1-2.4-0.1-3.6c0-2.1,0-2.1-2.2-2.2c-5.9,0-11.9,0-17.8,0    c-1.5,0-1.9,0.4-1.9,1.9c0,18.9,0,37.8,0,56.7c0,1.3,0.4,1.6,1.7,1.6c6.3,0,12.7,0,19,0c2.1,0,2.1,0,2.1-2.1    c0-8.8-0.1-17.7,0.1-26.5c0.2-9.9,7.2-15.6,17-14.1c1.1,0.2,2.2,0.4,3.3,0.6c0.1-0.3,0.1-0.5,0.2-0.8c-0.5-5.7-1-11.4-1.5-17.1    c-0.1-1-0.6-1.2-1.5-1.4c-6.5-1-11.9,0.8-16.2,5.8C87.1,73.4,86.5,74,85.9,74.7z"></path>
		<path class="st0" d="M435,81l-0.4-0.1c0-0.5-0.1-1.1-0.1-1.6c0-3,0-6.1,0-9.1c0-1-0.3-1.5-1.4-1.4s-2.3,0-3.5,0    c-2.1,0-2.1,0-2.1,2.1v54.3c0,0.7,0,1.3,0,2c0,0.8,0.4,1.2,1.2,1.2c1.3-0.1,2.5-0.1,3.8,0c1.5,0.1,2-0.4,2-1.9    c-0.1-8.8-0.1-17.6,0-26.3c0.1-3.6,0.5-7.2,1.2-10.7c1.5-6.9,5.1-12.3,12-15c5.2-1.9,10.9-2.1,16.3-0.7    c6.9,1.6,11.3,6.7,11.1,14.4c-0.2,8.8,0,17.7,0,26.5c0,4,0.1,7.9,0,11.9c0,1.5,0.5,2,1.9,1.8c0.9,0,1.7,0,2.6,0    c2.5,0,2.6,0,2.6-2.4c0-13.8,0-27.7-0.2-41.5c-0.2-6.8-4.6-12.8-11-15c-7-2.4-14.7-2.7-21.9-0.7c-4.7,1.1-8.8,3.9-11.5,7.9    C436.7,78,435.9,79.5,435,81z"></path>
		<path class="st0" d="M366,88.3V73.1c0-7.9,0-15.7,0-23.6c0-1.4-0.4-1.8-1.7-1.7c-1,0.1-1.9,0-2.9,0c-2.3,0-2.3,0-2.3,2.3v71.2    c0,1.9,0,3.8,0,5.6c0,1,0.3,1.5,1.4,1.4c1.2-0.1,2.4-0.1,3.6,0c1.6,0.2,1.9-0.5,1.9-2C366,113.7,366,101,366,88.3z"></path>
		<path class="st0" d="M0,47.8h49.5c3.6,0,7.2,0,10.8,0c1.3,0,1.9,0.3,1.9,1.8c-0.1,4.5-0.1,9,0,13.5c0,1.4-0.5,1.7-1.8,1.7    c-10.9,0-21.8,0-32.7,0c-2.2,0-2.2,0-2.2,2.1v12.3c0.7,0.1,1.4,0.1,2,0.1c8.8,0,17.6,0,26.3-0.1c2.4,0,2.4,0,2.4,2.3    c0,4.4,0,8.7,0,13.1c0,1.4-0.4,1.7-1.8,1.7c-8.9,0-17.9,0-26.8,0c-2.2,0-2.2,0-2.2,2.3c0,9.3,0,18.6,0,27.8c0,1.4-0.4,1.9-1.9,1.9    c-7.9-0.1-15.7,0-23.6,0L0,47.8z"></path>
		<path class="st0" d="M387.1,129.7c-6-0.6-11.5-2.8-14.7-8.5l-0.2-0.4c-3.5-6.4-1.7-14.4,4.1-18.8c4.2-3.2,9.1-5,14.2-6.4    c4.6-1.3,9.2-2.4,13.8-3.7c2.8-0.7,5.4-2.2,7.4-4.3c3.3-3.4,3.3-8.8-0.1-12.1c-0.9-0.9-2-1.6-3.2-2c-5.1-2-10.4-2-15.7-1.4    c-5.6,0.6-11,2.1-16.1,4.6c0.4-2.2,0.6-4,1-5.9c0.1-0.3,0.6-0.6,1-0.7c8.3-2.3,17-3.1,25.6-2.4c4.2,0.4,8.4,1.4,12,4    c3.2,2.3,5,5.9,4.9,9.8c0.1,15.1,0,30.1,0.1,45.2c0,1.2-0.4,1.8-1.6,1.7c-1.3-0.1-2.6-0.1-4,0c-1.2,0.1-1.6-0.3-1.6-1.6    c0.1-4.4,0-8.8,0-13.2V91.5c-0.8,0.8-1.8,1.5-2.8,2.1c-3.5,1.5-7,3-10.5,4.3c-5,1.8-10,3.2-15,5c-3.2,1.1-5.8,3.4-7.3,6.4    c-3,6,0.2,12.9,7,14.9c6.3,1.9,12.5,1.1,18.7-0.7c0.5-0.1,1-0.3,1.5-0.4c0.1,0,0.2,0.1,0.6,0.2c-0.3,1.5-0.7,3-1.2,4.5    c-0.1,0.4-1,0.7-1.5,0.8C398.6,129.4,392.6,130.3,387.1,129.7z"></path>
		<path class="st0" d="M317.5,129.8c-1.5-0.2-3-0.4-4.4-0.8c-5.6-1.5-9.8-4.7-11.7-10.3c-2.3-6.8,0-13.2,6.1-17.4    c4-2.8,8.5-4.3,13.1-5.6c5.1-1.4,10.3-2.7,15.3-4.3c2.2-0.8,4.2-2,5.9-3.7c4-3.7,3.6-11.3-3.2-14c-4-1.5-8.3-2.1-12.5-1.7    c-6.3,0.3-12.5,1.7-18.2,4.3c-0.2,0.1-0.5,0.2-1,0.3c0.3-2,0.5-3.9,0.9-5.7c0.1-0.3,0.7-0.6,1.1-0.7c8.4-2.3,17.1-3.1,25.8-2.4    c3.8,0.2,7.5,1.4,10.8,3.3c3.8,2.3,6.1,6.5,5.9,11v30.7c0,4.7,0,9.3,0,14c0,1.2-0.3,1.8-1.6,1.7c-1.3-0.1-2.5-0.1-3.8,0    c-1.2,0.1-1.6-0.4-1.6-1.6c0-6.7,0-13.4,0-20.1c0-4.4,0-8.8,0-13.2c0-0.5-0.1-1.1-0.1-2c-1,0.8-1.7,1.4-2.4,2    c-3.2,2.2-6.9,3.3-10.6,4.4c-5.6,1.7-11.3,2.8-16.5,5.7c-3.1,1.8-5.7,4-6.6,7.7c-1.5,5.9,1.8,11.3,7.8,13c6.5,1.9,12.9,1,19.3-1    l1.4-0.4c-0.5,1.9-0.8,3.6-1.3,5.1c-0.1,0.3-0.8,0.5-1.3,0.6C328.4,129.5,322.9,130.3,317.5,129.8z"></path>
		<path class="st0" d="M513.7,129.8c-1.1-0.1-2.2-0.3-3.2-0.5c-4.5-1.1-8.6-2.3-12.4-5c-5.4-4-8.5-10-10-16.4    c-2-8.1-1.4-16.6,1.6-24.3c3.5-8.6,10.1-13.4,18.9-15.3c7.4-1.5,15-1,22.2,1.2c0.6,0.3,1.1,0.8,1.3,1.4c0.3,1.6,0.6,3.1,0.7,4.7    c-3.1-0.8-6-1.7-8.8-2.4c-5.2-1.3-10.7-1.2-15.9,0.4c-5.7,1.6-10.1,6-11.9,11.7c-3.2,9.4-3.2,18.9,1,28    c3.3,7.3,9.4,10.7,17.3,11.2c5.7,0.3,11.4-0.6,16.8-2.4c0.2-0.1,0.5-0.1,1-0.2c-0.4,2-0.7,3.8-1.1,5.6c-0.1,0.4-0.8,0.7-1.3,0.8    C524.6,129.2,519.1,130.3,513.7,129.8z"></path>
		<path class="st0" d="M251.3,0.8c69.5,0,139.1,0,208.6,0h122c2.4,0,2.4,0,2.4,2.4c0,19,0,38,0,57.1v2.7    C476.8,26.4,364.7,5.5,251.3,0.8z"></path>
		<path class="st0" d="M298.4,102.8c-1-6.7-4.7-11.4-10.9-14.1c-2-0.9-4-1.6-6.4-2.5l1.7-0.7c3.8-1.6,7.1-3.7,9.4-7.1    c3.3-5,3.8-10.6,3-16.4c-0.6-5.3-4.1-9.8-9-11.8c-3.8-1.6-7.9-2.5-12-2.4c-9.8-0.1-19.6,0-29.4-0.1c-1.4,0-1.6,0.6-1.6,1.8    c0,25.6,0,51.2,0,76.8c0,2,0,2,2.1,2c8.4,0,16.7-0.1,25.1,0c4.2,0.1,8.3-0.3,12.3-1.3c5.2-1.4,9.7-3.8,12.7-8.5    C298.5,113.8,299.2,108.4,298.4,102.8z M250.9,54c0-0.2,0.1-0.3,0.2-0.5c0.3,0,0.7-0.1,1-0.1c7.5,0,15,0,22.5,0    c3.6-0.1,7.2,1.3,9.8,3.8c3.6,3.6,4,8.2,3.2,12.9c-1.5,9.4-8.1,13.2-16.9,13.8c-6.2,0.4-12.4,0.1-18.5,0.1c-0.9,0-1.4-0.3-1.4-1.3    C250.9,73.1,250.9,63.6,250.9,54z M280.3,121.1c-3.1,0.9-6.4,1.5-9.7,1.6c-6.1,0.2-12.2,0.1-18.2,0.1c-1.2,0-1.6-0.4-1.6-1.6    c0-5,0-10,0-15l0,0c0-4.9,0-9.7,0-14.6c0-1.4,0.4-2,2-2c7.2,0.1,14.4-0.1,21.6,0.1c5.7,0.2,10.7,2.4,14.1,7.2    c4.9,7.3,3,17.3-4.3,22.2C283,120,281.7,120.7,280.3,121.1z"></path>
		<path class="st0" d="M85.9,74.7c0.7-0.7,1.2-1.3,1.8-1.9c4.4-5,9.8-6.8,16.2-5.8c0.9,0.1,1.4,0.4,1.5,1.4c0.5,5.7,1,11.4,1.5,17.1    c0,0.3-0.1,0.6-0.2,0.8c-1.1-0.2-2.2-0.4-3.3-0.6c-9.8-1.5-16.8,4.2-17,14.1c-0.2,8.8-0.1,17.6-0.1,26.5c0,2.1,0,2.1-2.1,2.1    c-6.3,0-12.7,0-19,0c-1.2,0-1.7-0.3-1.7-1.6c0-18.9,0-37.8,0-56.7c0-1.4,0.4-1.9,1.9-1.9c5.9,0.1,11.9,0,17.8,0    c2.2,0,2.2,0,2.2,2.2c0,1.2,0,2.4,0.1,3.6C85.5,74.2,85.7,74.3,85.9,74.7z"></path>
		<path class="st0" d="M435,81c0.9-1.5,1.6-3,2.6-4.4c2.7-4,6.8-6.8,11.5-7.9c7.2-2,14.8-1.7,21.9,0.7c6.4,2.2,10.8,8.2,11,15    c0.2,13.8,0.2,27.7,0.2,41.5c0,2.4-0.1,2.4-2.6,2.4c-0.9,0-1.7,0-2.6,0c-1.4,0.1-2-0.3-1.9-1.8c0.1-4,0-7.9,0-11.9    c0-8.8-0.2-17.7,0-26.5c0.2-7.8-4.2-12.8-11.1-14.4c-5.4-1.4-11.1-1.2-16.3,0.7c-6.9,2.6-10.5,8-12,15c-0.7,3.5-1.1,7.1-1.2,10.7    c-0.2,8.8-0.1,17.5,0,26.3c0,1.6-0.5,2.1-2,1.9c-1.3-0.1-2.5-0.1-3.8,0c-0.9,0-1.2-0.4-1.2-1.2c0-0.7,0-1.3,0-2V70.9    c0-2.1,0-2.1,2.1-2.1c1.2,0,2.3,0.1,3.5,0s1.4,0.4,1.4,1.4c0,3,0,6.1,0,9.1c0,0.5,0,1.1,0.1,1.6L435,81z"></path>
		<path class="st0" d="M366,88.3c0,12.7,0,25.4,0,38.2c0,1.5-0.3,2.1-1.9,2c-1.2-0.1-2.4-0.1-3.6,0c-1.1,0.1-1.4-0.4-1.4-1.4    c0-1.9,0-3.8,0-5.6V50.2c0-2.3,0-2.3,2.3-2.3c1,0,1.9,0.1,2.9,0c1.3-0.1,1.8,0.3,1.7,1.7c0,7.8,0,15.7,0,23.6L366,88.3z"></path>
		<path class="st0" d="M171.9,91.4c-0.8-10.5-6.1-18-15.9-21.9c-9.4-3.6-19.7-3.9-29.2-0.8c-6.2,1.8-11.6,5.8-14.9,11.3    c-4.8,7.9-5.4,16.5-4.2,25.4c0.9,6.6,3.7,12.4,8.8,16.9c5.7,4.9,12.6,7,20,7.6c9.2,0.7,18.9-0.8,27.4-1.9c1.1-0.2,1.5-0.8,1.6-1.8    c0.4-2.9,0.8-5.8,1.2-8.7c0.3-2,0.5-4.1,0.8-6.3l-2.3,0.5c-4.8,1-9.6,2.3-14.4,3c-4.3,0.8-8.7,0.3-12.7-1.3    c-4.1-1.7-7-4.3-7.8-8.9c-0.4-2.5-0.4-2.5,2.2-2.5c12.7,0,25.5,0,38.2,0c1.3,0,1.7-0.4,1.7-1.7C172,97.3,172.1,94.3,171.9,91.4z     M149.9,90.2c0,0.3-0.9,0.7-1.4,0.8c-2.9,0.1-5.8,0-8.7,0l0,0c-2.8,0-5.6,0-8.4,0c-1.3,0-1.7-0.3-1.4-1.7c1.6-7.2,7.8-11,14.4-8.6    C148.4,82.1,150.1,86.8,149.9,90.2z"></path>
		<path class="st0" d="M238.6,88.6c-1.5-10-7.6-16.4-16.9-19.7c-7.4-2.5-15.4-3-23.1-1.5c-9.6,1.7-17,6.4-21.3,15.3    c-3.1,6.3-3.6,13-3,19.9c0.3,4.6,1.6,9,3.8,13c5.6,9.8,15.3,13.2,25.8,14c9.2,0.7,19-0.8,27.1-1.8c0.9-0.1,1.3-0.6,1.4-1.5    c0.5-4.2,1.1-8.4,1.7-12.7c0.1-0.8,0.1-1.7,0.2-2.6c-0.8,0.2-1.4,0.3-2,0.4c-3.5,0.9-7,1.9-10.6,2.6c-5,1.1-10.1,1.1-15.1-0.2    c-5.3-1.5-9-5.3-9.6-10.2c-0.2-1.8-0.1-1.9,1.7-1.9h28c3.6,0,7.3,0,10.9,0c0.8,0,1.4,0,1.4-1.1C239,96.7,239.2,92.6,238.6,88.6z     M213.9,91c-2.3,0-4.6,0-6.8,0l0,0c-2.8,0-5.7,0-8.5,0c-1.1,0-1.6-0.4-1.4-1.6c1.6-7.7,8.1-11.2,14.6-8.6c3,1.2,4.5,3.7,5,6.7    C217.4,91,217.3,91,213.9,91z"></path>
		<path class="st0" d="M585.2,93.7c-0.3-2.6-0.4-5.2-1-7.7c-1.7-7.6-5.7-13.5-13-16.6c-5.7-2.5-11.7-2.4-17.6-1.1    c-8.7,1.9-15.2,6.6-18.7,14.9c-3,6.8-3.3,14-2.5,21.3c1.5,13.2,9.7,22.2,22.3,24.7c1.3,0.3,2.7,0.4,4,0.6    c6.2,0.5,12.3-0.6,18.4-1.9c1.4-0.3,3.1-0.2,3.4-1.8s0.5-3.3,0.8-4.9c-2,0.7-3.6,1.3-5.2,1.8c-5.8,1.7-11.9,2.2-17.9,1.4    c-8.6-0.8-14.3-5.6-17.2-13.7c-1.4-4.2-2.1-8.7-2-13.2c0-2.1,0-2.1,2.1-2.1c14.1,0,28.2,0,42.3,0    C584.8,95.5,585.4,95.1,585.2,93.7z M576.5,91c-5.9-0.1-11.8,0-17.7,0l0,0h-17.5c-1.9,0-2-0.1-1.6-1.9    c3.1-16.7,19.7-19.9,29.4-15.4c4.8,2.2,7.4,6.3,8.5,11.4c0.3,1.4,0.4,2.8,0.6,4.2S577.8,91,576.5,91z"></path>
	</g>
</g>
</svg>
